# xmcd
#
# Track frame offsets: 
#        150
#        14192
#        27597
#        53970
#        75725
#        91779
#        110872
#        130002
#        155355
#        168982
#        207102
#
# Disc length: 3090 seconds
#
# Revision: 0
# Processed by: cddbd v1.5.2PL0 Copyright (c) Steve Scherf et al.
# Submitted via: ExactAudioCopy v0.99pb5
#
DISCID=8f0c100b
DTITLE=Roadrunners - Nightcrawlin'
DYEAR=1997
DGENRE=Blues
TTITLE0=Big Inch Record
TTITLE1=Your Last Boogie
TTITLE2=Good Rockin' Tonight
TTITLE3=Up Jumped The Devil
TTITLE4=Old Maid (She Kept On Siitin' On It)
TTITLE5=Nightcrawler
TTITLE6=It's Love Baby (24 Hours A Day)
TTITLE7=One Scotch, One Bourbon, One Beer
TTITLE8=Bingo
TTITLE9=Evry Day I Have The Blues
TTITLE10=Pink Champagne
EXTD=
EXTT0=
EXTT1=
EXTT2=
EXTT3=
EXTT4=
EXTT5=
EXTT6=
EXTT7=
EXTT8=
EXTT9=
EXTT10=
PLAYORDER=
